<?xml version='1.0' encoding='utf-8'?>
<svg xmlns="http://www.w3.org/2000/svg" viewBox="0 0 312 96" width="312" height="96" role="img" aria-label="Pictiq rendered message">
<g id="pictiq-message" fill="none">
<g class="pictiq-frame" data-frame="0">
<g class="pictiq-token" data-type="icon" data-id="place_home">
<svg x="16" y="16" width="64" height="64" viewBox="0 0 32 32" color="#000000"><defs><clipPath id="f0_t0_icon-clip"><rect x="2" y="2" width="28" height="28" rx="3.8" ry="3.8" /></clipPath></defs><g id="f0_t0_frame"><rect x="1" y="1" width="30" height="30" rx="4.8" ry="4.8" stroke="currentColor" stroke-width="2" fill="none" /></g><g id="f0_t0_icon" clip-path="url(#f0_t0_icon-clip)"><g id="f0_t0_shape_place_home" transform="translate(5.000000 5.000000) scale(0.042969)"><g transform="translate(0.000000,512.000000) scale(0.100000,-0.100000)" fill="currentColor" stroke="none">
<path d="M418 3996 c-75 -27 -123 -76 -147 -145 -8 -25 -11 -397 -11 -1368 l0 -1333 243 2 242 3 3 333 2 332 1830 0 1830 0 2 -333 3 -332 238 -3 237 -2 0 1039 c0 1132 2 1082 -57 1159 -35 47 -114 82 -183 82 -67 0 -124 -25 -173 -75 -66 -68 -67 -78 -67 -557 l0 -428 -1835 0 -1834 0 -3 723 c-3 523 -7 732 -16 757 -16 49 -67 107 -115 131 -52 27 -140 34 -189 15z" />
<path d="M1170 3709 c-30 -5 -82 -22 -115 -38 -321 -151 -320 -592 2 -743 175 -83 376 -46 509 94 76 80 114 173 114 278 0 254 -248 453 -510 409z" />
<path d="M1846 3416 c-21 -8 -52 -27 -68 -43 -60 -56 -63 -69 -68 -303 l-5 -215 -365 -5 -365 -5 -55 -27 c-127 -63 -156 -196 -64 -298 68 -75 67 -75 614 -75 534 0 531 0 593 62 60 59 62 73 62 433 l0 326 -26 49 c-46 90 -159 135 -253 101z" />
<path d="M2180 2935 l0 -485 1068 2 1067 3 3 280 c1 154 -2 315 -7 357 -19 146 -93 243 -223 294 l-73 29 -917 3 -918 3 0 -486z" />
</g>
</g></g></svg>
</g>
<g class="pictiq-token" data-type="icon" data-id="rel_here">
<svg x="88" y="16" width="64" height="64" viewBox="0 0 32 32" color="#000000"><defs><clipPath id="f0_t1_icon-clip"><rect x="2" y="2" width="28" height="28" rx="3.8" ry="3.8" /></clipPath></defs><g id="f0_t1_frame"><rect x="1" y="1" width="30" height="30" rx="4.8" ry="4.8" stroke="currentColor" stroke-width="2" fill="none" /></g><g id="f0_t1_icon" clip-path="url(#f0_t1_icon-clip)"><g id="f0_t1_shape_rel_here" transform="translate(3.000000 3.000000) scale(0.050781)"><g transform="translate(0.000000,512.000000) scale(0.100000,-0.100000)" fill="currentColor" stroke="none">
<path d="M2503 3852 c-39 -31 -43 -61 -43 -368 0 -313 5 -350 48 -373 36 -19 89 -13 119 13 l28 24 0 337 0 337 -28 24 c-34 29 -91 32 -124 6z" />
<path d="M2281 3464 c-138 -37 -305 -137 -414 -248 -113 -115 -223 -312 -243 -433 l-6 -40 53 -6 c71 -9 132 -8 144 1 6 4 19 33 30 66 40 122 134 252 240 333 67 51 200 119 252 129 l33 6 0 104 c0 118 5 113 -89 88z" />
<path d="M2752 3379 l3 -102 65 -22 c86 -29 133 -54 208 -110 109 -82 218 -234 253 -353 16 -55 35 -63 142 -57 95 5 92 0 55 115 -94 295 -334 525 -637 614 -95 28 -92 31 -89 -85z" />
<path d="M2490 3014 c-46 -9 -145 -47 -185 -72 -137 -84 -215 -226 -215 -389 0 -191 98 -340 280 -427 62 -30 71 -31 191 -31 l125 0 80 39 c238 118 335 383 224 612 -55 112 -150 197 -273 243 -57 21 -177 34 -227 25z" />
<path d="M1274 2640 c-32 -13 -64 -59 -64 -91 0 -18 11 -41 29 -61 l29 -33 341 0 341 0 26 27 c37 37 37 99 0 136 l-26 27 -328 2 c-180 1 -337 -2 -348 -7z" />
<path d="M3180 2643 c-38 -14 -60 -46 -60 -90 0 -53 30 -88 81 -98 19 -3 173 -5 342 -3 l309 3 29 33 c31 35 36 66 17 107 -24 53 -40 55 -385 54 -175 0 -325 -3 -333 -6z" />
<path d="M1625 2323 c12 -67 63 -186 117 -273 114 -185 308 -334 522 -399 111 -34 107 -38 104 80 l-3 101 -55 17 c-210 65 -410 264 -471 469 l-12 42 -105 0 -104 0 7 -37z" />
<path d="M3295 2348 c-31 -89 -52 -136 -86 -188 -95 -147 -242 -262 -399 -311 l-55 -17 -3 -101 c-3 -99 -2 -101 20 -101 44 0 220 68 300 116 202 122 363 335 422 561 l14 53 -104 0 c-75 0 -106 -4 -109 -12z" />
<path d="M2493 1976 l-28 -24 0 -325 0 -325 24 -26 c20 -21 34 -26 72 -26 40 0 51 4 73 31 l26 31 0 315 0 315 -29 29 c-39 38 -97 40 -138 5z" />
</g>
</g></g></svg>
</g>
<g class="pictiq-token" data-type="icon" data-id="qual_good">
<svg x="160" y="16" width="64" height="64" viewBox="0 0 32 32" color="#000000"><defs><clipPath id="f0_t2_icon-clip"><rect x="2" y="2" width="28" height="28" rx="3.8" ry="3.8" /></clipPath></defs><g id="f0_t2_frame"><rect x="1" y="1" width="30" height="30" rx="4.8" ry="4.8" stroke="currentColor" stroke-width="2" fill="none" /></g><g id="f0_t2_icon" clip-path="url(#f0_t2_icon-clip)"><path d="M 8 12.5 C 9.8 21.5, 22.2 21.5, 24 12.5" fill="none" stroke="currentColor" stroke-width="3.5" stroke-linecap="round" /></g></svg>
</g>
<g class="pictiq-token" data-type="icon" data-id="media_image">
<svg x="232" y="16" width="64" height="64" viewBox="0 0 32 32" color="#0000ff"><defs><clipPath id="f0_t3_icon-clip"><rect x="2" y="2" width="28" height="28" rx="3.8" ry="3.8" /></clipPath></defs><g id="f0_t3_frame"><rect x="1" y="1" width="30" height="30" rx="4.8" ry="4.8" stroke="currentColor" stroke-width="2" fill="none" /></g><g id="f0_t3_icon" clip-path="url(#f0_t3_icon-clip)"><g id="f0_t3_shape_media_image" transform="translate(5.000000 5.000000) scale(0.042969)"><g transform="translate(0.000000,512.000000) scale(0.100000,-0.100000)" fill="currentColor" stroke="none">
<path d="M17 4552 c-16 -17 -17 -171 -17 -2005 l0 -1987 2493 0 c2290 0 2497 1 2528 16 19 9 49 31 67 47 l32 31 0 1896 0 1896 -63 62 -63 62 -2480 0 c-2391 0 -2482 -1 -2497 -18z m4793 -1914 l0 -1623 -190 190 c-104 104 -190 197 -190 205 0 8 -101 116 -225 240 -124 124 -225 232 -225 240 0 8 -78 92 -172 187 -161 161 -175 173 -210 173 -34 0 -51 -14 -297 -261 -144 -143 -261 -268 -261 -277 0 -19 -99 -122 -117 -122 -18 0 -53 37 -53 56 0 9 -40 57 -90 106 -49 49 -90 96 -90 105 0 8 -47 62 -105 120 -58 57 -105 110 -105 119 0 8 -43 57 -95 109 -52 52 -95 102 -95 111 0 9 -47 63 -105 121 -58 58 -105 112 -105 120 0 8 -54 69 -119 134 -66 66 -121 130 -123 142 -2 15 -11 23 -28 25 -14 2 -29 10 -33 18 -4 8 -16 14 -26 14 -23 0 -161 -135 -161 -157 0 -9 -34 -49 -75 -90 -41 -40 -75 -82 -75 -92 0 -9 -34 -50 -75 -90 -41 -40 -75 -81 -75 -90 0 -10 -47 -64 -105 -121 -58 -56 -105 -110 -105 -120 0 -9 -40 -56 -90 -104 -50 -49 -90 -96 -90 -105 0 -9 -47 -63 -105 -121 -58 -58 -105 -112 -105 -120 0 -8 -47 -62 -105 -120 -58 -58 -105 -112 -105 -120 0 -8 -54 -69 -120 -135 -66 -66 -120 -127 -120 -136 0 -8 -11 -26 -25 -39 l-25 -23 0 1576 0 1577 2310 0 2310 0 0 -1622z" />
<path d="M3306 3775 c-3 -9 -19 -15 -41 -15 -28 0 -42 -7 -62 -30 -13 -16 -33 -30 -43 -30 -22 0 -150 -129 -150 -151 0 -9 -7 -22 -15 -29 -8 -7 -15 -20 -15 -30 0 -10 -7 -23 -15 -30 -8 -7 -15 -27 -15 -45 0 -18 -7 -38 -15 -45 -12 -10 -15 -36 -15 -115 0 -82 3 -104 15 -109 10 -3 15 -19 15 -45 0 -25 5 -41 15 -45 8 -3 15 -16 15 -30 0 -13 7 -26 15 -30 8 -3 15 -14 15 -25 0 -22 153 -181 174 -181 7 0 23 -9 36 -20 14 -12 31 -18 44 -14 14 3 31 -3 45 -15 22 -19 37 -21 156 -21 120 0 134 2 151 21 12 13 26 18 40 15 13 -4 31 2 47 14 14 11 32 20 39 20 21 0 178 160 178 181 0 9 14 29 30 42 26 22 30 32 30 75 0 32 5 54 15 62 12 10 15 37 15 125 0 88 -3 115 -15 125 -8 7 -15 27 -15 45 0 18 -7 38 -15 45 -8 7 -15 20 -15 29 0 21 -190 211 -211 211 -9 0 -22 7 -29 15 -7 8 -20 15 -30 15 -10 0 -23 7 -30 15 -10 12 -43 15 -175 15 -136 0 -164 -3 -169 -15z" />
</g>
</g></g></svg>
</g>
</g>
</g></svg>
