<svg xmlns="http://www.w3.org/2000/svg" width="480" height="310" viewBox="0 0 480 310"><rect width="100%" height="100%" fill="#fff"/><image href="approved-foreground-red.png" width="480" height="310"/><g transform="matrix(1 0 0 -1 0 310)" fill="#2168ca" fill-opacity=".52"><path d="M402 249 l-4 -1 -52 -53 -52 -52 -1 -2 -1 -1 0 -1 1 -2 15 -14 15
-14 2 1 2 1 28 26 27 27 25 23 26 24 1 4 2 4 0 4 0 4 -2 5 -3 5 -4 4 -5 4 -4
2 -3 2 -4 0 -4 1 -5 -1z M280 125 l-2 -4 -18 -9 -18 -9 -2 -11 -3 -11 -4 -15
-5 -15 1 -1 2 -1 13 13 13 13 0 5 0 5 3 2 2 2 3 0 3 0 3 -2 2 -3 0 -2 0 -3 -2
-3 -3 -2 -4 0 -4 0 -13 -14 -13 -14 0 -1 0 -1 3 0 4 1 21 7 22 8 2 1 3 1 8 16
8 16 4 3 4 4 0 1 0 1 -13 12 -14 13 -1 0 -2 0 -3 -3z M287 50 l-3 -3 -1 -1 -1
-1 0 -1 0 -1 62 0 62 0 1 2 2 2 0 1 0 2 -2 1 -1 2 -57 0 -58 0 -4 -3z" /></g></svg>