<?xml version='1.0' encoding='utf-8'?>
<svg xmlns="http://www.w3.org/2000/svg" viewBox="0 0 168 96" width="168" height="96" role="img" aria-label="Pictiq rendered message">
<g id="pictiq-message" fill="none">
<g class="pictiq-frame" data-frame="0">
<g class="pictiq-token" data-type="icon" data-id="media_text">
<svg x="16" y="16" width="64" height="64" viewBox="0 0 32 32" color="#000000"><defs><clipPath id="f0_t0_icon-clip"><rect x="2" y="2" width="28" height="28" rx="3.8" ry="3.8" /></clipPath></defs><g id="f0_t0_frame"><rect x="1" y="1" width="30" height="30" rx="4.8" ry="4.8" stroke="currentColor" stroke-width="2" fill="none" /></g><g id="f0_t0_icon" clip-path="url(#f0_t0_icon-clip)"><g id="f0_t0_shape_media_text" transform="translate(5.000000 5.000000) scale(0.042969)"><g transform="translate(0.000000,512.000000) scale(0.100000,-0.100000)" fill="currentColor" stroke="none">
<path d="M570 5105 c-7 -8 -27 -15 -45 -15 -18 0 -38 -7 -45 -15 -7 -8 -20 -15 -30 -15 -22 0 -130 -108 -130 -130 0 -10 -7 -23 -15 -30 -8 -7 -15 -21 -15 -32 0 -10 -7 -21 -15 -24 -13 -5 -15 -282 -15 -2405 0 -2386 0 -2399 20 -2419 20 -20 33 -20 2285 -20 l2265 0 0 55 c0 40 4 57 15 61 13 5 15 216 15 1814 0 1598 -2 1809 -15 1814 -10 3 -15 19 -15 44 0 23 -6 45 -15 52 -8 7 -15 20 -15 29 0 20 -460 481 -480 481 -8 0 -168 153 -355 340 -215 215 -347 340 -360 340 -11 1 -31 14 -45 30 -14 18 -34 30 -47 30 -13 0 -26 7 -29 15 -5 13 -176 15 -1454 15 -1274 0 -1449 -2 -1460 -15z m2677 -825 c2 -415 4 -476 18 -486 8 -6 15 -20 15 -31 0 -24 69 -92 100 -98 13 -3 28 -11 32 -20 8 -13 76 -15 548 -15 l540 0 0 -1729 c0 -1489 -2 -1730 -14 -1734 -8 -3 -16 -18 -18 -34 l-3 -28 -1899 -3 -1898 -2 -39 39 -39 39 0 2253 0 2253 37 38 37 38 1291 -2 1290 -3 2 -475z" />
<path d="M1048 3102 l-58 -58 0 -65 0 -65 58 -57 58 -57 1406 0 1406 0 56 55 56 54 0 85 0 84 -40 41 -41 41 -1422 0 -1422 -1 -57 -57z" />
<path d="M1254 2275 c-5 -11 -24 -15 -80 -15 -52 0 -75 -4 -81 -14 -4 -8 -19 -16 -32 -18 -17 -2 -27 -12 -32 -32 -5 -17 -15 -34 -24 -38 -11 -7 -15 -26 -15 -76 l0 -68 63 -62 63 -62 1395 0 1396 0 61 59 62 58 0 84 0 85 -43 42 -43 42 -241 0 c-202 0 -243 2 -253 15 -9 11 -35 15 -105 15 -73 0 -94 -3 -99 -15 -4 -12 -33 -15 -171 -15 -138 0 -167 3 -171 15 -5 12 -24 15 -85 15 -62 0 -81 -3 -85 -15 -5 -13 -38 -15 -205 -15 -168 0 -201 2 -205 15 -4 10 -21 15 -54 15 -33 0 -50 -5 -54 -15 -4 -12 -26 -15 -106 -15 -80 0 -102 3 -106 15 -5 13 -56 15 -375 15 -319 0 -370 -2 -375 -15z" />
<path d="M1156 1375 c-3 -8 -17 -15 -30 -15 -14 0 -29 -6 -33 -14 -4 -8 -19 -16 -33 -18 -18 -2 -26 -10 -28 -28 -2 -14 -12 -33 -23 -43 -15 -14 -19 -32 -19 -81 l0 -63 59 -62 60 -61 1402 0 1402 0 58 59 59 59 0 84 0 84 -43 42 c-23 23 -52 42 -64 42 -11 0 -23 7 -27 15 -5 13 -166 15 -1370 15 -1203 0 -1365 -2 -1370 -15z" />
</g>
</g></g></svg>
</g>
<g class="pictiq-token" data-type="icon" data-id="service_tools">
<svg x="88" y="16" width="64" height="64" viewBox="0 0 32 32" color="#000000"><defs><clipPath id="f0_t1_icon-clip"><rect x="2" y="2" width="28" height="28" rx="3.8" ry="3.8" /></clipPath></defs><g id="f0_t1_frame"><rect x="1" y="1" width="30" height="30" rx="4.8" ry="4.8" stroke="currentColor" stroke-width="2" fill="none" /></g><g id="f0_t1_icon" clip-path="url(#f0_t1_icon-clip)"><g id="f0_t1_shape_service_tools" transform="translate(5.000000 5.000000) scale(0.042969)"><g transform="translate(0.000000,512.000000) scale(0.100000,-0.100000)" fill="currentColor" stroke="none">
<path d="M1732 4833 c-48 -5 -78 -36 -65 -69 4 -10 66 -109 138 -219 175 -267 175 -267 175 -310 0 -72 -25 -102 -148 -182 -152 -100 -173 -108 -230 -92 -48 13 -64 33 -290 369 -88 132 -100 145 -127 145 -23 0 -35 -8 -56 -40 -59 -89 -109 -272 -109 -397 0 -244 134 -500 335 -643 135 -96 251 -135 430 -143 l130 -7 180 -273 c99 -149 270 -409 380 -577 110 -168 291 -444 402 -613 112 -169 203 -310 203 -314 0 -4 -11 -31 -25 -60 -55 -118 -75 -214 -75 -351 0 -131 25 -233 87 -357 39 -79 63 -111 138 -186 165 -167 346 -243 576 -244 97 0 129 8 140 37 11 30 16 22 -148 271 -73 111 -140 216 -148 232 -22 43 -19 101 8 141 26 39 223 174 279 191 46 14 101 3 133 -25 14 -12 94 -125 178 -252 150 -227 153 -230 187 -230 30 0 37 5 57 40 58 102 103 272 103 386 0 231 -118 478 -294 618 -149 118 -283 167 -483 178 l-122 6 -78 120 c-94 145 -313 479 -496 757 -262 398 -567 863 -581 888 -5 8 4 41 23 81 68 149 91 352 56 503 -68 296 -297 531 -585 601 -71 17 -210 27 -278 20z" />
<path d="M1716 3057 c-18 -18 -25 -39 -30 -97 -10 -96 -29 -143 -77 -184 -95 -81 -203 -73 -310 22 -55 49 -87 59 -125 39 -41 -22 -231 -217 -243 -249 -13 -35 -1 -71 38 -113 63 -68 76 -96 76 -165 0 -79 -20 -126 -76 -174 -41 -35 -54 -38 -171 -51 -101 -11 -102 -14 -106 -219 -2 -118 0 -182 8 -196 16 -30 69 -50 130 -50 85 0 140 -31 189 -105 21 -33 26 -52 26 -110 0 -76 -11 -100 -72 -166 -39 -41 -54 -84 -41 -119 11 -31 202 -226 242 -247 38 -20 69 -10 130 41 28 24 60 48 71 53 62 32 165 21 222 -23 53 -40 80 -98 89 -188 5 -64 11 -84 30 -103 23 -23 26 -23 205 -21 181 3 182 3 200 28 11 15 22 57 29 109 12 102 38 147 106 187 38 22 60 28 108 28 70 -1 100 -14 170 -75 40 -35 57 -44 88 -44 35 0 46 9 137 99 l99 98 6 78 7 78 -35 47 c-69 89 -72 175 -10 267 19 28 33 56 31 62 -3 6 -51 82 -108 168 -57 87 -194 295 -304 463 -110 168 -281 428 -380 578 l-180 272 -73 3 c-64 3 -74 0 -96 -21z m377 -824 c112 -53 205 -154 240 -263 39 -116 30 -219 -28 -337 -104 -212 -360 -300 -574 -198 -136 65 -225 183 -251 332 -14 79 1 173 41 257 36 78 121 161 203 200 88 43 100 45 211 42 78 -1 99 -6 158 -33z" />
</g>
</g></g></svg>
</g>
</g>
</g></svg>
