<?xml version='1.0' encoding='utf-8'?>
<svg xmlns="http://www.w3.org/2000/svg" viewBox="0 0 168 96" width="168" height="96" role="img" aria-label="Pictiq rendered message">
<g id="pictiq-message" fill="none">
<g class="pictiq-frame" data-frame="0">
<g class="pictiq-token" data-type="icon" data-id="qual_bad">
<svg x="16" y="16" width="64" height="64" viewBox="0 0 32 32" color="#000000"><defs><clipPath id="f0_t0_icon-clip"><rect x="2" y="2" width="28" height="28" rx="3.8" ry="3.8" /></clipPath></defs><g id="f0_t0_frame"><rect x="1" y="1" width="30" height="30" rx="4.8" ry="4.8" stroke="currentColor" stroke-width="2" fill="none" /></g><g id="f0_t0_icon" clip-path="url(#f0_t0_icon-clip)"><path d="M 8 19.5 C 9.8 10.5, 22.2 10.5, 24 19.5" fill="none" stroke="currentColor" stroke-width="3.5" stroke-linecap="round" /></g></svg>
</g>
<g class="pictiq-token" data-type="icon" data-id="punct_exclaim">
<svg x="88" y="16" width="64" height="64" viewBox="0 0 32 32" color="#000000"><defs><clipPath id="f0_t1_icon-clip"><rect x="2" y="2" width="28" height="28" rx="3.8" ry="3.8" /></clipPath></defs><g id="f0_t1_frame"><rect x="1" y="1" width="30" height="30" rx="4.8" ry="4.8" stroke="currentColor" stroke-width="2" fill="none" /></g><g id="f0_t1_icon" clip-path="url(#f0_t1_icon-clip)"><g id="f0_t1_shape_punct_exclaim" transform="translate(5.000000 5.000000) scale(0.042969)"><g transform="translate(0.000000,512.000000) scale(0.100000,-0.100000)" fill="currentColor" stroke="none">
<path d="M2130 4121 l0 -559 110 -892 c61 -491 113 -897 116 -901 7 -12 401 -12 408 0 3 4 57 417 121 918 l115 909 0 542 0 542 -435 0 -435 0 0 -559z" />
<path d="M2110 970 l0 -450 455 0 455 0 0 450 0 450 -455 0 -455 0 0 -450z" />
</g>
</g></g></svg>
</g>
</g>
</g></svg>
