<?xml version='1.0' encoding='utf-8'?>
<svg xmlns="http://www.w3.org/2000/svg" viewBox="0 0 32 32"><defs><clipPath id="icon-clip"><rect x="2" y="2" width="28" height="28" rx="3.8" ry="3.8" /></clipPath></defs><g id="frame"><rect x="1" y="1" width="30" height="30" rx="4.8" ry="4.8" stroke="currentColor" stroke-width="2" fill="none" /></g><g id="icon" clip-path="url(#icon-clip)"><g id="shape_surface_wavy" transform="translate(4.000000 10.025105) scale(0.100418)"><g transform="translate(0.000000,119.000000) scale(0.100000,-0.100000)" fill="currentColor" stroke="none">
<path d="M460 1153 c-109 -18 -184 -60 -298 -166 -53 -50 -103 -87 -123 -93 l-34 -10 -3 -88 -3 -89 46 6 c70 10 142 52 230 137 106 102 149 124 240 124 91 0 132 -21 243 -126 116 -109 201 -150 322 -156 153 -7 237 28 376 159 103 98 154 123 244 123 88 0 138 -26 244 -124 87 -81 130 -108 203 -130 76 -23 133 11 133 78 0 53 -21 78 -80 92 -42 10 -67 27 -148 102 -149 137 -265 181 -415 158 -108 -16 -182 -57 -290 -159 -106 -100 -159 -127 -247 -125 -81 2 -137 31 -237 126 -102 96 -165 133 -260 153 -68 15 -95 16 -143 8z" />
<path d="M450 518 c-93 -15 -171 -58 -269 -151 -58 -55 -105 -91 -135 -102 l-46 -18 0 -83 0 -84 38 0 c61 0 153 52 240 137 97 94 154 123 242 123 86 0 133 -23 223 -107 123 -117 193 -157 301 -172 149 -21 270 25 404 151 106 101 160 129 247 130 84 0 141 -27 225 -106 117 -110 199 -156 281 -156 48 0 79 35 79 90 0 44 -27 73 -83 88 -45 13 -89 45 -172 125 -36 36 -88 72 -134 95 -73 36 -77 37 -191 37 -114 0 -117 -1 -191 -37 -53 -26 -100 -61 -159 -118 -108 -102 -152 -125 -245 -125 -90 1 -131 22 -241 125 -46 43 -102 90 -126 104 -86 49 -192 70 -288 54z" />
</g></g></g></svg>