<?xml version='1.0' encoding='utf-8'?>
<svg xmlns="http://www.w3.org/2000/svg" viewBox="0 0 32 32"><defs><clipPath id="icon-clip"><rect x="2" y="2" width="28" height="28" rx="3.8" ry="3.8" /></clipPath></defs><g id="frame"><rect x="1" y="1" width="30" height="30" rx="4.8" ry="4.8" stroke="currentColor" stroke-width="2" fill="none" /></g><g id="icon" clip-path="url(#icon-clip)"><g id="shape_time" transform="translate(5.000000 5.000000) scale(0.042969)"><g transform="translate(0.000000,512.000000) scale(0.100000,-0.100000)" fill="currentColor" stroke="none">
<path d="M5 2560 c0 -1411 1 -1988 2 -1283 2 706 2 1860 0 2565 -1 706 -2 129 -2 -1282z" />
<path d="M2420 4674 c-19 -2 -77 -9 -129 -15 -121 -14 -309 -60 -436 -106 -303 -110 -546 -264 -776 -493 -328 -328 -535 -737 -606 -1200 -23 -156 -23 -444 0 -600 70 -461 276 -870 602 -1195 287 -287 612 -470 1000 -563 186 -45 287 -56 485 -56 198 0 299 11 485 56 387 93 714 276 1000 563 274 274 452 584 554 967 48 180 65 319 65 528 0 209 -17 348 -65 528 -102 384 -282 696 -558 972 -128 127 -228 207 -378 302 -228 144 -520 251 -801 293 -97 15 -375 27 -442 19z m370 -308 c532 -71 1005 -372 1293 -823 128 -200 225 -452 269 -703 17 -99 17 -460 0 -560 -44 -249 -141 -502 -269 -703 -179 -280 -463 -531 -748 -662 -510 -234 -1040 -234 -1550 0 -285 131 -569 382 -748 662 -100 156 -181 343 -231 533 -43 166 -51 235 -51 450 0 215 8 284 51 450 64 244 174 470 323 665 119 156 321 336 501 447 192 118 454 210 690 243 128 17 341 18 470 1z" />
<path d="M3220 3115 c-344 -234 -631 -422 -639 -420 -7 3 -204 138 -437 300 -232 162 -425 295 -428 295 -5 0 -136 -186 -136 -194 0 -2 198 -143 440 -313 243 -169 455 -318 472 -330 58 -42 138 -23 181 42 16 26 191 150 652 461 347 235 632 428 633 430 6 4 -98 154 -106 154 -4 -1 -288 -192 -632 -425z" />
</g>
</g></g></svg>