<?xml version='1.0' encoding='utf-8'?>
<svg xmlns="http://www.w3.org/2000/svg" viewBox="0 0 32 32"><defs><clipPath id="icon-clip"><rect x="2" y="2" width="28" height="28" rx="3.8" ry="3.8" /></clipPath></defs><g id="frame"><rect x="1" y="1" width="30" height="30" rx="4.8" ry="4.8" stroke="currentColor" stroke-width="2" fill="none" /></g><g id="icon" clip-path="url(#icon-clip)"><g id="shape_money_card" transform="translate(5.000000 5.000000) scale(0.042969)"><g transform="translate(0.000000,512.000000) scale(0.100000,-0.100000)" fill="currentColor" stroke="none">
<path d="M2860 4407 c-492 -234 -2493 -1225 -2530 -1252 -87 -64 -134 -189 -111 -296 17 -79 755 -1579 804 -1635 22 -25 60 -57 85 -72 42 -24 57 -27 137 -27 50 0 100 4 111 8 21 7 22 5 26 -110 3 -100 8 -126 30 -173 32 -70 88 -126 158 -158 67 -32 -74 -28 1700 -47 874 -9 1340 -11 1368 -4 96 21 173 84 214 174 l22 50 -3 515 c-2 283 -6 691 -10 905 l-6 390 -28 57 c-31 62 -84 115 -149 149 -36 19 -66 24 -198 30 -85 4 -223 8 -306 8 l-151 1 -344 701 c-241 492 -356 715 -382 745 -64 73 -116 97 -216 102 l-86 3 -135 -64z m356 -442 c57 -118 105 -219 106 -225 2 -6 -359 -188 -801 -405 -799 -393 -804 -395 -866 -395 -84 0 -175 -45 -220 -108 -28 -40 -55 -55 -354 -203 -177 -87 -325 -159 -328 -159 -5 0 -213 427 -213 439 0 6 2542 1263 2568 1270 2 1 50 -96 108 -214z m408 -806 c21 -45 36 -82 34 -84 -2 -1 -67 -35 -145 -74 l-143 -71 -207 1 -208 1 310 154 c171 84 313 154 316 154 3 0 23 -36 43 -81z m-114 -550 c580 -6 1055 -12 1056 -13 1 0 4 -113 8 -249 l6 -249 -193 6 c-105 3 -754 11 -1442 17 -687 7 -1251 12 -1251 13 -1 0 -4 113 -6 250 l-3 248 385 -6 c212 -3 860 -11 1440 -17z m1076 -1053 c1 0 4 -43 6 -94 l4 -94 -430 6 c-237 3 -637 9 -888 12 l-458 6 0 90 0 90 883 -7 c485 -4 883 -8 883 -9z m-233 -343 l247 -6 0 -89 0 -88 -272 0 c-150 0 -405 3 -565 7 l-293 6 0 89 0 88 318 0 c174 0 428 -3 565 -7z" />
</g>
</g></g></svg>