<svg xmlns="http://www.w3.org/2000/svg" viewBox="0 0 32 32"><defs><clipPath id="icon-clip"><rect x="2" y="2" width="28" height="28" rx="3.8" ry="3.8" /></clipPath></defs><g id="frame"><rect x="1" y="1" width="30" height="30" rx="4.8" ry="4.8" stroke="currentColor" stroke-width="2" fill="none" /></g><g id="icon" clip-path="url(#icon-clip)"><g id="canonical_github__platform" transform="matrix(0.135265700483 0 0 -0.135265700483 -2.260869565217 32.231884057971)" fill="currentColor" stroke="none"><path d="M98 194 l-1 -2 -1 -6 -1 -5 0 -6 1 -6 -2 -3 -2 -3 -3 -6 -2 -5 -1 -8
0 -8 1 -6 1 -5 2 -6 3 -5 4 -4 4 -4 7 -3 7 -4 7 -1 6 -1 -2 -3 -3 -2 -1 -3 -1
-3 0 -3 0 -2 -3 -2 -4 -1 -4 0 -3 0 -5 2 -4 2 -4 7 -3 7 -4 3 -4 3 -5 1 -5 0
-2 -2 -3 -3 0 -2 1 -2 4 -1 4 -1 2 -2 2 -3 3 -6 3 -6 2 -3 2 -3 5 -3 6 -2 9 0
10 0 0 -8 -1 -8 1 -2 0 -2 5 0 5 0 0 15 1 16 0 1 1 0 2 -1 1 -2 0 -15 0 -14 3
0 4 1 0 11 0 12 1 1 0 2 1 -13 2 -13 3 -1 3 0 0 13 0 13 1 3 0 3 1 0 2 -1 0
-15 1 -15 4 -1 4 0 1 2 0 3 0 19 -1 19 -1 2 -1 3 -3 2 -2 3 6 1 6 1 5 2 6 2 5
3 5 4 3 5 4 5 2 6 1 6 0 9 0 9 -1 5 -2 5 -3 4 -3 5 0 5 1 5 -1 7 -1 6 -1 2 -2
1 -5 -1 -5 -2 -7 -4 -6 -3 -9 2 -8 1 -9 0 -8 -1 -5 -1 -5 -1 -5 3 -4 3 -6 2
-5 2 -1 0 -2 0 -1 -1z m-15 -98 l0 -2 -1 0 0 -1 -2 1 -1 1 1 1 0 1 2 0 1 0 0
-1z m6 -5 l0 -1 -1 -1 -1 -1 -1 1 -1 1 0 1 1 1 1 0 1 0 1 -1z m3 -8 l0 -1 -2
-1 -1 0 0 2 0 2 2 0 1 0 0 -2z m5 -7 l-1 -1 -1 0 -1 0 -1 1 0 2 2 0 2 0 0 -2z
m8 -4 l0 -1 -2 0 -1 0 -1 1 0 2 2 0 2 -1 0 -1z m9 0 l0 -1 -2 0 -1 0 -1 1 0 1
2 0 3 0 -1 -1z" /></g></g></svg>
